<svg width="640" height="400" viewBox="0 0 640 400" fill="none" xmlns="http://www.w3.org/2000/svg">
  <rect x="1" y="1" width="638" height="398" rx="24" fill="#0B0B0B" stroke="#7F1D1D" stroke-width="2"/>
  <rect x="28" y="28" width="584" height="72" rx="18" fill="#111111" stroke="#991B1B" stroke-width="2"/>
  <circle cx="80" cy="64" r="22" fill="#DC2626"/>
  <path d="M80 50L84 72H76L80 50Z" fill="white"/>
  <rect x="120" y="52" width="190" height="8" rx="4" fill="#FCA5A5"/>
  <rect x="120" y="68" width="260" height="8" rx="4" fill="#FEE2E2"/>
  <rect x="28" y="124" width="280" height="108" rx="18" fill="#111111" stroke="#B91C1C" stroke-width="2"/>
  <rect x="48" y="148" width="160" height="10" rx="5" fill="#FECACA"/>
  <rect x="48" y="168" width="210" height="10" rx="5" fill="#FEE2E2"/>
  <rect x="48" y="188" width="140" height="10" rx="5" fill="#FECACA"/>
  <rect x="332" y="124" width="280" height="108" rx="18" fill="#111111" stroke="#B91C1C" stroke-width="2"/>
  <rect x="352" y="148" width="140" height="10" rx="5" fill="#FECACA"/>
  <rect x="352" y="168" width="200" height="10" rx="5" fill="#FEE2E2"/>
  <rect x="352" y="188" width="110" height="10" rx="5" fill="#FECACA"/>
  <rect x="28" y="256" width="584" height="116" rx="22" fill="#111111" stroke="#B91C1C" stroke-width="2"/>
  <circle cx="86" cy="314" r="30" fill="#EF4444"/>
  <path d="M86 294L90 330H82L86 294Z" fill="white"/>
  <rect x="136" y="296" width="210" height="12" rx="6" fill="#FECACA"/>
  <rect x="136" y="318" width="300" height="12" rx="6" fill="#FEE2E2"/>
  <rect x="460" y="292" width="126" height="40" rx="20" fill="#DC2626"/>
  <rect x="468" y="304" width="60" height="8" rx="4" fill="#FEE2E2"/>
  <rect x="536" y="304" width="40" height="8" rx="4" fill="#FECACA"/>
</svg>
